<svg xmlns="http://www.w3.org/2000/svg" width="80" height="80" viewBox="0 0 80 80"><path d="M30 10l-7.5 4.34L45 30l-7.5 4.32L60 20l-7.5 4.32L75 10l-7.5 4.32L30 40l-7.5-4.32L15 30l-7.5 4.32L30 10z" fill="#2c3e50"/><path d="M30 40l-7.5-4.32L15 30l-7.5 4.32V30l7.5-4.32L30 30v10zM30 40l7.5-4.32L45 30l7.5-4.32V30l-7.5 4.32L30 30v10z" fill="#3498db"/><path d="M30 50l-7.5-4.32L15 40l-7.5-4.32V40l7.5 4.32L30 40v10zM75 40l-7.5-4.32L60 30l-7.5-4.32L45 40l-7.5-4.32V70l22.5-13.02L75 40v10z" fill="#16aa85"/><path d="M30 50l7.5-4.32L45 40l7.5-4.32L60 50l-7.5 4.32L45 60l-7.5 4.32L30 50z" fill="#f39c12"/></svg>